<svg width="126" height="126" viewBox="0 0 126 126" fill="none" xmlns="http://www.w3.org/2000/svg">
<circle cx="63" cy="63" r="63" fill="#FFC0CB"/>
<path d="M51 79C51 76.2386 53.2386 74 56 74H70C72.7614 74 75 76.2386 75 79C75 81.7614 72.7614 84 70 84H56C53.2386 84 51 81.7614 51 79Z" fill="#FFF8F1"/>
<path d="M61 84.5C61 83.1193 62.1193 82 63.5 82C64.8807 82 66 83.1193 66 84.5V88.5C66 89.8807 64.8807 91 63.5 91C62.1193 91 61 89.8807 61 88.5V84.5Z" fill="#FFF8F1"/>
<path d="M51 47C51 40.3726 56.3726 35 63 35C69.6274 35 75 40.3726 75 47V60C75 66.6274 69.6274 72 63 72C56.3726 72 51 66.6274 51 60V47Z" fill="#FFF8F1"/>
<rect x="84" y="37.7071" width="6" height="65.4946" rx="3" transform="rotate(45 84 37.7071)" fill="#FFF8F1" stroke="#FFC0CB"/>
</svg>
