<svg width="36" height="45" viewBox="0 0 36 45" fill="none" xmlns="http://www.w3.org/2000/svg">
<path d="M13.2514 27C13.6777 26.5642 14.3502 26.4989 14.8567 26.844C15.4028 27.2161 15.5854 27.9467 15.2786 28.5321L8.54834 41.3719C7.55952 43.2584 5.12187 43.7534 3.4704 42.4031C1.90065 41.1196 1.75972 38.7447 3.1679 37.3055L13.2514 27Z" fill="#D9D9D9"/>
<mask id="path-2-inside-1_3_174" fill="white">
<ellipse cx="21.3232" cy="15" rx="14.6767" ry="15"/>
</mask>
<ellipse cx="21.3232" cy="15" rx="14.6767" ry="15" fill="#A2A2A2"/>
<path d="M11 15C11 9.99341 15.1112 5 21.3232 5V55C43.7467 55 61 36.5751 61 15H11ZM21.3232 5C27.5353 5 31.6465 9.99341 31.6465 15H-18.3535C-18.3535 36.5751 -1.1003 55 21.3232 55V5ZM31.6465 15C31.6465 20.0066 27.5353 25 21.3232 25V-25C-1.1003 -25 -18.3535 -6.57513 -18.3535 15H31.6465ZM21.3232 25C15.1112 25 11 20.0066 11 15H61C61 -6.57513 43.7467 -25 21.3232 -25V25Z" fill="#D9D9D9" mask="url(#path-2-inside-1_3_174)"/>
</svg>
